@startuml
entity "Controller"{
id: int
commandMap: HashMap <String, Command>

public doorOpeningRestriction()
public addSequence()
public removeSequence()
private mergeSequence()

public registerCommand(): void

}

enum DoorState{
OPENED
CLOSED
}

entity Cabin{
id: int
}

entity SequenceOfStops {
id: int
stopFloors: int[]
currentFloor: int
}

Direction "direction" --o SequenceOfStops


enum EngineState{
GOING_UP
GOING_DOWN
STAYING
}

enum Direction{
UPWARDS
DOWNWARDS
}

enum ButtonState{
PRESSED
UNPRESSED
}

entity "CabinButton"{
cabinId: int
buttonValue: int

press(): void
isPressed(): bool
}


abstract "FloorButton"{
  press(): void
  isPressed(): bool
}

entity "UpFloorButton" {
  id: int
}

entity "DownFloorButton" {
 id: int
}

"UpFloorButton" --|> "FloorButton"
"DownFloorButton" --|> "FloorButton"

abstract Floor{
  id: int
  visit(): void
}

interface FloorWithUpButton {
  pressUpButton(): void
}

"UpFloorButton" "upButton" --o FloorWithUpButton

interface FloorWithDownButton {
 pressDownButton(): void
}

"DownFloorButton" "downButton" --o FloorWithDownButton

entity FirstFloor {
  id: int
}

FirstFloor --|> Floor
FirstFloor ..|> FloorWithUpButton

entity LastFloor {
  id: int
}

LastFloor --|> Floor
LastFloor ..|> FloorWithDownButton

entity MiddleFloor {
  id: int
}

MiddleFloor --|> Floor
MiddleFloor ..|> FloorWithUpButton
MiddleFloor ..|> FloorWithDownButton

Direction "direction" --o "FloorButton"

Cabin "1" o-- "N cabinButtons" "CabinButton"
ButtonState "isPressed " --o "FloorButton"
ButtonState "isPressed " --o "CabinButton"

entity Engine {
  id: int
}

Engine o-- "engineState" EngineState

entity Shaft {
  cabinPosition: int
}

Shaft "1" o-- "1 engine" Engine

entity House {
  id: int
  shafts: Shaft[]
}

Shaft "1" o-- "N floors" Floor
House "1" o-- "N shafts" Shaft

Controller "1 controller" --o "1" House
Shaft "1" o-- "1 cabin" Cabin

Cabin o-- "doorState" DoorState

SequenceOfStops "0..N SequenceOfStops" --o "1" Shaft

interface Command {
    execute()
}

class MoveCabinCommand {
    Controller: controller
}
class OpenDoorCommand {
    Controller: controller
}
class CloseDoorCommand {
    Controller: controller
}
class DisplayCurrentPositionCommand{
    Controller: controller
}
class StopCabinCommand {
    Controller: controller

    private checkOverweight(): boolean
    private displayOverweight(): void
}

class FindNearestCabinCommand {
    Controller: controller
}

enum OverweightState {
    OVERWEIGHTED
    NOT_OVERWEIGHTED
}

OverweightState "isOverweighted" --o Cabin

MoveCabinCommand  ..|> Command
OpenDoorCommand  ..|> Command
CloseDoorCommand  ..|> Command
DisplayCurrentPositionCommand  ..|> Command
StopCabinCommand  ..|> Command
FindNearestCabinCommand  ..|> Command

Controller <--o MoveCabinCommand
Controller <--o OpenDoorCommand
Controller <--o CloseDoorCommand
Controller <--o DisplayCurrentPositionCommand
Controller <--o FindNearestCabinCommand
Controller <--o StopCabinCommand

Shaft <--o "command" Command



@enduml
